<?xml version="1.0" standalone="no"?><!DOCTYPE svg PUBLIC "-//W3C//DTD SVG 1.1//EN" "http://www.w3.org/Graphics/SVG/1.1/DTD/svg11.dtd"><svg t="1714097749254" class="icon" viewBox="0 0 1024 1024" version="1.1" xmlns="http://www.w3.org/2000/svg" p-id="7739" xmlns:xlink="http://www.w3.org/1999/xlink" width="200" height="200"><path d="M232 214.4H60.8c-17.6 0-32-14.4-32-32s14.4-32 32-32h171.2c17.6 0 32 14.4 32 32s-14.4 32-32 32zM963.2 214.4H491.2c-17.6 0-32-14.4-32-32s14.4-32 32-32h472c17.6 0 32 14.4 32 32s-14.4 32-32 32z" fill="#43484D" p-id="7740"></path><path d="M491.2 299.2H232c-17.6 0-32-14.4-32-32V96c0-17.6 14.4-32 32-32h257.6c17.6 0 32 14.4 32 32v171.2c1.6 17.6-12.8 32-30.4 32z m-227.2-64h193.6V128H264v107.2z" fill="#229BFF" p-id="7741"></path><path d="M963.2 558.4H792c-17.6 0-32-14.4-32-32s14.4-32 32-32h171.2c17.6 0 32 14.4 32 32s-14.4 32-32 32zM532.8 558.4H60.8c-17.6 0-32-14.4-32-32s14.4-32 32-32h472c17.6 0 32 14.4 32 32s-14.4 32-32 32z" fill="#43484D" p-id="7742"></path><path d="M792 643.2H532.8c-17.6 0-32-14.4-32-32V440c0-17.6 14.4-32 32-32h257.6c17.6 0 32 14.4 32 32v171.2c1.6 17.6-12.8 32-30.4 32z m-227.2-64h193.6v-107.2H564.8v107.2z" fill="#229BFF" p-id="7743"></path><path d="M232 902.4H60.8c-17.6 0-32-14.4-32-32s14.4-32 32-32h171.2c17.6 0 32 14.4 32 32s-14.4 32-32 32zM963.2 902.4H491.2c-17.6 0-32-14.4-32-32s14.4-32 32-32h472c17.6 0 32 14.4 32 32s-14.4 32-32 32z" fill="#43484D" p-id="7744"></path><path d="M491.2 987.2H232c-17.6 0-32-14.4-32-32V784c0-17.6 14.4-32 32-32h257.6c17.6 0 32 14.4 32 32v171.2c1.6 17.6-12.8 32-30.4 32z m-227.2-64h193.6V816H264v107.2z" fill="#229BFF" p-id="7745"></path></svg>