<?xml version="1.0" standalone="no"?><!DOCTYPE svg PUBLIC "-//W3C//DTD SVG 1.1//EN" "http://www.w3.org/Graphics/SVG/1.1/DTD/svg11.dtd"><svg t="1714097038348" class="icon" viewBox="0 0 1024 1024" version="1.1" xmlns="http://www.w3.org/2000/svg" p-id="1717" xmlns:xlink="http://www.w3.org/1999/xlink" width="200" height="200"><path d="M948.097 79.812c12.938 13.845 32.606 40.5 31.7 84.363-1.682 84.233-78.928 197.063-229.539 335.511l9.963 285.566s4.787 80.869-16.174 128.744c-20.832 47.874-44.381 93.29-54.215 96.008-5.305 1.553-10.998 0.129-16.045-4.917-3.493-3.493-6.599-8.54-9.315-15.527 0 0-101.055-286.472-114.641-325.936-195.38 137.543-264.087 106.489-278.062 96.655-1.035-0.776-2.07-1.553-2.976-2.459l-7.246-7.375c-0.906-0.905-1.812-1.812-2.458-2.847-9.833-13.974-41.146-83.068 97.69-279.614-42.957-15.267-331.111-117.227-331.111-117.227-6.987-2.717-12.033-5.823-15.527-9.316-5.046-5.046-6.47-10.739-4.917-16.044 2.717-9.833 48.134-33.383 96.008-54.215 47.875-20.961 128.744-16.174 128.744-16.174l293.2 10.222C659.942 117.206 771.607 41.124 855.193 39.442c43.864-0.776 70.519 18.891 84.363 31.701l0.389 0.518c1.423 1.294 2.717 2.588 4.011 3.752 1.164 1.165 2.458 2.458 3.752 4.011l0.389 0.388z m-13.457 83.457c0.518-27.301-10.739-42.958-19.538-52.533l-1.294-1.165c-1.164-1.294-2.717-2.847-4.011-4.141l-1.165-1.164c-9.574-8.928-25.23-20.056-52.532-19.538-51.498 1.035-148.929 42.569-320.761 234.456-259.558 289.708-242.867 389.08-238.985 402.148l1.682 1.553c13.068 4.012 112.441 20.703 402.147-238.855C892.07 312.198 933.604 214.767 934.64 163.269zM702.642 896.011c11.904-27.561 13.975-80.87 12.422-108.042 0-0.388-0.13-0.776-0.13-1.035l-8.669-247.913c-43.863 38.43-83.587 70.777-119.558 97.819 1.812 2.588 3.364 5.435 4.399 8.411l98.467 279.354c4.011-8.539 8.41-18.114 13.069-28.594z m-218.93-586.789l-255.418-8.928c-0.259 0-0.647-0.129-0.906-0.129-27.302-1.553-80.611 0.518-108.171 12.421a1505.628 1505.628 0 0 0-28.595 13.068l279.355 98.467c4.917 1.682 9.187 4.528 13.198 7.634 27.69-36.747 60.944-77.505 100.537-122.533z" fill="#97C5EA" p-id="1718"></path><path d="M915.102 110.736c8.799 9.575 20.056 25.231 19.538 52.533-1.035 51.498-42.569 148.929-234.456 320.76-289.707 259.559-389.08 242.867-402.148 238.856l-1.682-1.553c-3.882-13.068-20.573-112.44 238.985-402.147C707.171 127.298 804.602 85.764 856.1 84.729c27.302-0.518 42.958 10.61 52.532 19.538l1.165 1.164c1.294 1.294 2.847 2.847 4.011 4.141l1.294 1.164zM715.063 787.969c1.553 27.172-0.518 80.481-12.422 108.042a1511.925 1511.925 0 0 1-13.068 28.595l-98.467-279.354c-1.035-2.977-2.588-5.823-4.399-8.411 35.971-27.042 75.694-59.39 119.558-97.819l8.669 247.913c0 0.257 0.129 0.646 0.129 1.034zM228.294 300.294l255.418 8.928c-39.594 45.028-72.847 85.786-100.537 122.533-4.011-3.105-8.281-5.952-13.198-7.634L90.623 325.655c8.54-4.011 18.115-8.41 28.595-13.068 27.56-11.904 80.869-13.974 108.171-12.421 0.258-0.001 0.647 0.128 0.905 0.128zM478.019 753.033c17.468 17.468-23.42 102.607-41.017 140.648-4.917 10.609-14.362 20.832-23.679 25.489-24.196 11.904-69.742 30.407-88.633 11.517-3.105-3.235-5.563-7.505-6.987-13.069L291.049 802.59s71.294-4.27 159.668-47.228c14.104-6.857 22.773-6.857 27.302-2.329zM398.702 868.45c9.187-19.797 16.821-36.877 22.644-51.239a570.842 570.842 0 0 1-75.306 22.385l12.163 52.403c7.634-1.812 19.15-5.693 34.418-13.197 1.035-0.776 2.588-2.718 3.234-4.141l2.847-6.211z" fill="#97C5EA" p-id="1719"></path><path d="M421.346 817.211c-5.823 14.362-13.457 31.442-22.644 51.239l-2.847 6.211c-0.646 1.423-2.199 3.364-3.234 4.141-15.268 7.504-26.784 11.386-34.418 13.197l-12.163-52.403a570.842 570.842 0 0 0 75.306-22.385zM262.195 537.209c4.529 4.658 4.529 13.198-2.329 27.302-42.958 88.374-47.228 159.668-47.228 159.668L97.609 697.524c-5.564-1.423-9.963-3.882-13.068-7.116-18.891-18.762-0.388-64.308 11.516-88.504 4.658-9.315 14.88-18.762 25.49-23.679 38.041-17.596 123.18-58.484 140.648-41.016z m-86.563 131.979a570.725 570.725 0 0 1 22.385-75.305c-14.363 5.822-31.442 13.456-51.239 22.643l-6.21 2.847c-1.423 0.647-3.364 2.2-4.141 3.235-7.505 15.268-11.386 26.783-13.198 34.418l52.403 12.162z" fill="#97C5EA" p-id="1720"></path><path d="M198.017 593.883a570.725 570.725 0 0 0-22.385 75.305l-52.403-12.162c1.812-7.635 5.693-19.15 13.198-34.418 0.776-1.035 2.717-2.588 4.141-3.235l6.21-2.847c19.797-9.187 36.876-16.821 51.239-22.643z" fill="#97C5EA" p-id="1721"></path><path d="M986.914 53.934c12.938 13.845 32.606 40.5 31.7 84.363-1.682 84.233-78.928 197.063-229.539 335.511l9.963 285.565s4.787 80.87-16.174 128.744c-20.832 47.875-44.381 93.291-54.215 96.009-5.305 1.553-10.998 0.129-16.045-4.917-3.493-3.494-6.599-8.54-9.315-15.527 0 0-101.055-286.472-114.641-325.936-195.38 137.542-264.087 106.488-278.062 96.655-1.035-0.776-2.07-1.553-2.976-2.459l-7.246-7.375c-0.906-0.906-1.812-1.812-2.458-2.847-9.833-13.975-41.146-83.069 97.69-279.614-42.957-15.268-331.111-117.228-331.111-117.228-6.987-2.717-12.033-5.823-15.527-9.316-5.046-5.046-6.47-10.74-4.917-16.044 2.717-9.834 48.133-33.383 96.008-54.215 47.875-20.961 128.744-16.174 128.744-16.174l293.2 10.222C698.76 91.328 810.425 15.246 894.011 13.564c43.864-0.776 70.519 18.891 84.363 31.701l0.388 0.518c1.424 1.294 2.718 2.588 4.012 3.752 1.164 1.165 2.458 2.458 3.752 4.011l0.388 0.388z m-13.457 83.457c0.518-27.302-10.739-42.958-19.538-52.533l-1.294-1.165c-1.164-1.294-2.717-2.847-4.011-4.141l-1.165-1.165c-9.574-8.928-25.231-20.056-52.532-19.538-51.498 1.035-148.93 42.57-320.761 234.457-259.558 289.708-242.866 389.08-238.985 402.148l1.682 1.553c13.068 4.012 112.44 20.703 402.147-238.855C930.888 286.32 972.422 188.889 973.457 137.391zM741.459 870.132c11.904-27.56 13.975-80.869 12.422-108.041 0-0.389-0.13-0.776-0.13-1.035l-8.669-247.913c-43.863 38.429-83.587 70.776-119.558 97.819 1.812 2.588 3.364 5.435 4.399 8.41l98.467 279.355a1502.4 1502.4 0 0 0 13.069-28.595z m-218.93-586.788l-255.417-8.928c-0.259 0-0.647-0.129-0.906-0.129-27.302-1.553-80.611 0.518-108.171 12.421a1505.535 1505.535 0 0 0-28.596 13.069l279.355 98.466c4.917 1.682 9.187 4.529 13.198 7.634 27.69-36.747 60.944-77.505 100.537-122.533z" fill="#024687" p-id="1722"></path><path d="M953.919 84.858c8.799 9.575 20.056 25.231 19.538 52.533-1.035 51.498-42.569 148.929-234.456 320.76C449.294 717.71 349.922 701.019 336.854 697.007l-1.682-1.553c-3.882-13.068-20.573-112.44 238.985-402.147C745.987 101.42 843.419 59.886 894.917 58.851c27.301-0.518 42.958 10.61 52.532 19.538l1.165 1.165c1.294 1.294 2.847 2.847 4.011 4.141l1.294 1.163zM753.881 762.091c1.553 27.172-0.518 80.481-12.422 108.041a1512.2 1512.2 0 0 1-13.068 28.596l-98.467-279.355c-1.035-2.976-2.588-5.822-4.399-8.41 35.971-27.043 75.694-59.391 119.558-97.819l8.669 247.913c-0.001 0.257 0.129 0.645 0.129 1.034zM267.112 274.416l255.417 8.928c-39.593 45.028-72.847 85.787-100.537 122.534-4.011-3.105-8.281-5.952-13.198-7.634l-279.355-98.466c8.54-4.011 18.115-8.411 28.596-13.069 27.56-11.904 80.869-13.974 108.171-12.421 0.259-0.001 0.647 0.128 0.906 0.128z" fill="#FFFFFF" p-id="1723"></path><path d="M516.836 727.155c17.468 17.468-23.419 102.606-41.017 140.647-4.917 10.61-14.362 20.832-23.679 25.49-24.196 11.904-69.742 30.407-88.633 11.516-3.105-3.234-5.563-7.504-6.987-13.068l-26.655-115.028s71.294-4.27 159.668-47.228c14.105-6.858 22.775-6.858 27.303-2.329zM437.52 842.572c9.187-19.797 16.821-36.877 22.644-51.239a570.842 570.842 0 0 1-75.306 22.385l12.163 52.403c7.634-1.812 19.15-5.693 34.418-13.198 1.035-0.776 2.588-2.717 3.235-4.141l2.846-6.21z" fill="#024687" p-id="1724"></path><path d="M460.163 791.333c-5.823 14.362-13.457 31.442-22.644 51.239l-2.847 6.21c-0.647 1.424-2.2 3.364-3.235 4.141-15.268 7.505-26.784 11.387-34.418 13.198l-12.163-52.403a570.806 570.806 0 0 0 75.307-22.385z" fill="#FFFFFF" p-id="1725"></path><path d="M301.012 511.331c4.529 4.658 4.529 13.197-2.329 27.302-42.958 88.374-47.228 159.668-47.228 159.668l-115.029-26.654c-5.564-1.424-9.963-3.882-13.068-7.116-18.891-18.762-0.388-64.308 11.516-88.504 4.658-9.316 14.88-18.762 25.49-23.679 38.041-17.597 123.18-58.485 140.648-41.017zM214.45 643.31a570.82 570.82 0 0 1 22.384-75.306c-14.362 5.823-31.442 13.457-51.239 22.644l-6.21 2.847c-1.423 0.647-3.364 2.199-4.141 3.234-7.505 15.269-11.387 26.784-13.198 34.419l52.404 12.162z" fill="#024687" p-id="1726"></path><path d="M236.834 568.004a570.667 570.667 0 0 0-22.384 75.306l-52.403-12.162c1.811-7.635 5.693-19.15 13.198-34.419 0.776-1.035 2.717-2.587 4.141-3.234l6.21-2.847c19.796-9.187 36.876-16.821 51.238-22.644z" fill="#FFFFFF" p-id="1727"></path></svg>