<?xml version="1.0" encoding="UTF-8"?>
<!DOCTYPE svg PUBLIC "-//W3C//DTD SVG 1.1//EN" "http://www.w3.org/Graphics/SVG/1.1/DTD/svg11.dtd">
<svg xmlns="http://www.w3.org/2000/svg" version="1.1" width="32px" height="32px" style="shape-rendering:geometricPrecision; text-rendering:geometricPrecision; image-rendering:optimizeQuality; fill-rule:evenodd; clip-rule:evenodd" xmlns:xlink="http://www.w3.org/1999/xlink">
<g><path style="opacity:0.998" fill="#79b362" d="M 13.5,-0.5 C 14.1667,-0.5 14.8333,-0.5 15.5,-0.5C 15.8274,9.68063 15.494,19.6806 14.5,29.5C 13.0869,26.3388 11.4203,23.3388 9.5,20.5C 10.4896,14.69 10.8229,8.68996 10.5,2.5C 10.5,2.16667 10.5,1.83333 10.5,1.5C 11.7095,1.06795 12.7095,0.40128 13.5,-0.5 Z"/></g>
<g><path style="opacity:0.012" fill="#79bd5d" d="M 10.5,1.5 C 9.83333,0.166667 9.83333,0.166667 10.5,1.5 Z"/></g>
<g><path style="opacity:0.016" fill="#6fa360" d="M 20.5,0.5 C 21.8333,1.16667 21.8333,1.16667 20.5,0.5 Z"/></g>
<g><path style="opacity:1" fill="#73a963" d="M 15.5,-0.5 C 15.8333,-0.5 16.1667,-0.5 16.5,-0.5C 17.3795,2.26219 18.5462,4.92885 20,7.5C 20.4997,14.8258 20.6663,22.1591 20.5,29.5C 19.8333,29.5 19.5,29.8333 19.5,30.5C 18.5084,30.3284 17.8417,30.6618 17.5,31.5C 16.8333,31.5 16.1667,31.5 15.5,31.5C 15.1667,30.8333 14.8333,30.1667 14.5,29.5C 15.494,19.6806 15.8274,9.68063 15.5,-0.5 Z"/></g>
<g><path style="opacity:0.012" fill="#6bc046" d="M 3.5,5.5 C 2.83333,4.16667 2.83333,4.16667 3.5,5.5 Z"/></g>
<g><path style="opacity:1" fill="#71bc54" d="M 10.5,2.5 C 10.8229,8.68996 10.4896,14.69 9.5,20.5C 8.73685,18.6316 7.73685,16.9649 6.5,15.5C 4.90909,12.6484 3.57576,9.6484 2.5,6.5C 3.16667,6.5 3.5,6.16667 3.5,5.5C 5.71283,4.22713 8.04616,3.22713 10.5,2.5 Z"/></g>
<g><path style="opacity:0.012" fill="#74ab64" d="M 27.5,4.5 C 28.8333,5.16667 28.8333,5.16667 27.5,4.5 Z"/></g>
<g><path style="opacity:0.004" fill="#508e4d" d="M 1.5,6.5 C 0.833333,5.16667 0.833333,5.16667 1.5,6.5 Z"/></g>
<g><path style="opacity:0.004" fill="#74ab63" d="M 29.5,5.5 C 30.8333,6.16667 30.8333,6.16667 29.5,5.5 Z"/></g>
<g><path style="opacity:1" fill="#659d5a" d="M 16.5,-0.5 C 16.8333,-0.5 17.1667,-0.5 17.5,-0.5C 18.2905,0.40128 19.2905,1.06795 20.5,1.5C 22.6351,3.07092 24.9684,4.40425 27.5,5.5C 27.8417,6.33825 28.5084,6.67158 29.5,6.5C 29.5,6.83333 29.5,7.16667 29.5,7.5C 25.0427,12.9438 23.376,19.2772 24.5,26.5C 22.8333,27.5 21.5,28.8333 20.5,30.5C 20.5,30.1667 20.5,29.8333 20.5,29.5C 20.6663,22.1591 20.4997,14.8258 20,7.5C 18.5462,4.92885 17.3795,2.26219 16.5,-0.5 Z"/></g>
<g><path style="opacity:0.795" fill="#639f57" d="M 1.5,6.5 C 1.83333,6.5 2.16667,6.5 2.5,6.5C 3.57576,9.6484 4.90909,12.6484 6.5,15.5C 4.8193,18.2028 3.15264,20.8695 1.5,23.5C 0.195977,17.9327 0.195977,12.266 1.5,6.5 Z"/></g>
<g><path style="opacity:0.665" fill="#468a43" d="M 29.5,7.5 C 30.1667,7.5 30.8333,7.5 31.5,7.5C 31.5,12.8333 31.5,18.1667 31.5,23.5C 30.5084,23.3284 29.8417,23.6618 29.5,24.5C 28.5084,24.3284 27.8417,24.6618 27.5,25.5C 26.609,26.1098 25.609,26.4431 24.5,26.5C 23.376,19.2772 25.0427,12.9438 29.5,7.5 Z"/></g>
<g><path style="opacity:0.941" fill="#3f883d" d="M 6.5,15.5 C 7.73685,16.9649 8.73685,18.6316 9.5,20.5C 11.4203,23.3388 13.0869,26.3388 14.5,29.5C 14.8333,30.1667 15.1667,30.8333 15.5,31.5C 14.8333,31.5 14.1667,31.5 13.5,31.5C 13.1583,30.6618 12.4916,30.3284 11.5,30.5C 11.1667,29.1667 10.8333,29.1667 10.5,30.5C 8.12015,27.7932 5.12015,25.7932 1.5,24.5C 1.5,24.1667 1.5,23.8333 1.5,23.5C 3.15264,20.8695 4.8193,18.2028 6.5,15.5 Z"/></g>
<g><path style="opacity:0.004" fill="#3a7d3d" d="M 1.5,24.5 C 0.833333,25.1667 0.833333,25.1667 1.5,24.5 Z"/></g>
<g><path style="opacity:0.004" fill="#3c853a" d="M 29.5,24.5 C 30.8333,25.1667 30.8333,25.1667 29.5,24.5 Z"/></g>
<g><path style="opacity:0.012" fill="#3a8339" d="M 27.5,25.5 C 28.8333,26.1667 28.8333,26.1667 27.5,25.5 Z"/></g>
<g><path style="opacity:0.004" fill="#3e8a3b" d="M 10.5,30.5 C 10.8333,30.5 11.1667,30.5 11.5,30.5C 11.5,30.8333 11.5,31.1667 11.5,31.5C 11.1667,31.1667 10.8333,30.8333 10.5,30.5 Z"/></g>
<g><path style="opacity:0.004" fill="#6ca45e" d="M 19.5,30.5 C 19.8333,30.5 20.1667,30.5 20.5,30.5C 20.5,30.8333 20.5,31.1667 20.5,31.5C 20.1667,31.1667 19.8333,30.8333 19.5,30.5 Z"/></g>
</svg>
