<?xml version="1.0" encoding="UTF-8"?>
<!DOCTYPE svg PUBLIC "-//W3C//DTD SVG 1.1//EN" "http://www.w3.org/Graphics/SVG/1.1/DTD/svg11.dtd">
<svg xmlns="http://www.w3.org/2000/svg" version="1.1" width="144px" height="144px" style="shape-rendering:geometricPrecision; text-rendering:geometricPrecision; image-rendering:optimizeQuality; fill-rule:evenodd; clip-rule:evenodd" xmlns:xlink="http://www.w3.org/1999/xlink">
<g><path style="opacity:0.008" fill="#3177c5" d="M 4.5,-0.5 C 4.83333,-0.5 5.16667,-0.5 5.5,-0.5C 5.31468,0.170143 4.98135,0.170143 4.5,-0.5 Z"/></g>
<g><path style="opacity:0.998" fill="#3178c6" d="M 8.5,-0.5 C 50.5,-0.5 92.5,-0.5 134.5,-0.5C 136.972,0.908946 139.305,2.57561 141.5,4.5C 141.66,6.15298 142.326,7.48631 143.5,8.5C 143.5,50.5 143.5,92.5 143.5,134.5C 142.326,135.514 141.66,136.847 141.5,138.5C 140.833,138.5 140.5,138.833 140.5,139.5C 139.833,139.5 139.5,139.833 139.5,140.5C 138.833,140.5 138.5,140.833 138.5,141.5C 136.847,141.66 135.514,142.326 134.5,143.5C 92.5,143.5 50.5,143.5 8.5,143.5C 7.48631,142.326 6.15298,141.66 4.5,141.5C 2.57561,139.305 0.908946,136.972 -0.5,134.5C -0.5,92.5 -0.5,50.5 -0.5,8.5C 1.5,4.5 4.5,1.5 8.5,-0.5 Z"/></g>
<g><path style="opacity:0.008" fill="#3177c5" d="M 137.5,-0.5 C 137.833,-0.5 138.167,-0.5 138.5,-0.5C 138.315,0.170143 137.981,0.170143 137.5,-0.5 Z"/></g>
<g><path style="opacity:0.012" fill="#3077c6" d="M 142.5,4.5 C 141.833,3.16667 141.833,3.16667 142.5,4.5 Z"/></g>
<g><path style="opacity:0.008" fill="#3177c5" d="M -0.5,4.5 C 0.833333,5.16667 0.833333,5.16667 -0.5,4.5 Z"/></g>
<g><path style="opacity:0.008" fill="#3177c5" d="M 142.5,4.5 C 142.833,4.5 143.167,4.5 143.5,4.5C 143.5,4.83333 143.5,5.16667 143.5,5.5C 143.167,5.16667 142.833,4.83333 142.5,4.5 Z"/></g>
<g><path style="opacity:1" fill="#b3cce9" d="M 32.5,68.5 C 49.3251,67.5034 66.3251,67.1701 83.5,67.5C 83.8168,71.7016 83.4834,75.7016 82.5,79.5C 82.5,75.8333 82.5,72.1667 82.5,68.5C 65.8333,68.5 49.1667,68.5 32.5,68.5 Z"/></g>
<g><path style="opacity:1" fill="#fafbfd" d="M 104.5,66.5 C 112.601,66.1726 120.601,66.8393 128.5,68.5C 128.666,72.8461 128.499,77.1794 128,81.5C 121.93,78.0348 115.43,76.8681 108.5,78C 102.273,81.4776 101.94,85.4776 107.5,90C 115.011,92.7171 121.844,96.5504 128,101.5C 131.902,107.747 132.569,114.414 130,121.5C 127.545,126.149 123.712,128.983 118.5,130C 108.617,132.451 98.9505,131.951 89.5,128.5C 88.3384,123.869 88.1717,119.202 89,114.5C 96.35,120.46 104.517,121.96 113.5,119C 117.644,115.021 117.31,111.355 112.5,108C 105.827,105.227 99.4937,101.894 93.5,98C 84.2596,82.9823 87.9263,72.4823 104.5,66.5 Z"/></g>
<g><path style="opacity:1" fill="#fbfcfe" d="M 32.5,68.5 C 49.1667,68.5 65.8333,68.5 82.5,68.5C 82.5,72.1667 82.5,75.8333 82.5,79.5C 76.8333,79.5 71.1667,79.5 65.5,79.5C 64.5034,96.3251 64.1701,113.325 64.5,130.5C 59.8333,130.5 55.1667,130.5 50.5,130.5C 50.5,113.5 50.5,96.5 50.5,79.5C 44.5,79.5 38.5,79.5 32.5,79.5C 32.5,75.8333 32.5,72.1667 32.5,68.5 Z"/></g>
<g><path style="opacity:1" fill="#8bb2de" d="M 65.5,79.5 C 65.5,96.8333 65.5,114.167 65.5,131.5C 60.3054,131.821 55.3054,131.487 50.5,130.5C 55.1667,130.5 59.8333,130.5 64.5,130.5C 64.1701,113.325 64.5034,96.3251 65.5,79.5 Z"/></g>
<g><path style="opacity:0.008" fill="#3077c5" d="M -0.5,137.5 C 0.833333,138.167 0.833333,138.167 -0.5,137.5 Z"/></g>
<g><path style="opacity:0.008" fill="#3077c5" d="M 143.5,137.5 C 143.5,137.833 143.5,138.167 143.5,138.5C 142.83,138.019 142.83,137.685 143.5,137.5 Z"/></g>
<g><path style="opacity:0.012" fill="#3077c5" d="M 141.5,138.5 C 141.833,138.5 142.167,138.5 142.5,138.5C 142.315,139.17 141.981,139.17 141.5,138.5 Z"/></g>
<g><path style="opacity:0.016" fill="#3178c6" d="M 140.5,139.5 C 140.833,139.5 141.167,139.5 141.5,139.5C 141.315,140.17 140.981,140.17 140.5,139.5 Z"/></g>
<g><path style="opacity:0.016" fill="#3178c5" d="M 139.5,140.5 C 139.833,140.5 140.167,140.5 140.5,140.5C 140.315,141.17 139.981,141.17 139.5,140.5 Z"/></g>
<g><path style="opacity:0.012" fill="#3077c5" d="M 4.5,141.5 C 4.5,141.833 4.5,142.167 4.5,142.5C 3.82986,142.019 3.82986,141.685 4.5,141.5 Z"/></g>
<g><path style="opacity:0.012" fill="#3077c5" d="M 138.5,141.5 C 138.833,141.5 139.167,141.5 139.5,141.5C 139.315,142.17 138.981,142.17 138.5,141.5 Z"/></g>
<g><path style="opacity:0.008" fill="#3077c5" d="M 4.5,142.5 C 5.16667,142.5 5.5,142.833 5.5,143.5C 5.16667,143.167 4.83333,142.833 4.5,142.5 Z"/></g>
<g><path style="opacity:0.008" fill="#3077c5" d="M 138.5,142.5 C 138.5,142.833 138.5,143.167 138.5,143.5C 137.83,143.019 137.83,142.685 138.5,142.5 Z"/></g>
</svg>
